<svg width="26" height="17" viewBox="0 0 26 17" fill="none" xmlns="http://www.w3.org/2000/svg">
<path fill-rule="evenodd" clip-rule="evenodd" d="M21.5203 2.78571C21.5203 1.52857 20.381 0.5 18.9885 0.5H15.1908V2.78571H18.9885V5.81429L14.5832 10.7857H10.1272V5.07143H5.06361C2.26597 5.07143 0 7.11714 0 9.64286V13.0714H2.5318C2.5318 14.9686 4.22811 16.5 6.32951 16.5C8.43091 16.5 10.1272 14.9686 10.1272 13.0714H15.7985L21.5203 6.61429V2.78571ZM6.32951 14.2143C5.63327 14.2143 5.06361 13.7 5.06361 13.0714H7.59541C7.59541 13.7 7.02576 14.2143 6.32951 14.2143Z" fill="#495E57"/>
<path d="M10.1273 1.64307H3.79773V3.92875H10.1273V1.64307Z" fill="#495E57"/>
<path fill-rule="evenodd" clip-rule="evenodd" d="M17.7226 13.0711C17.7226 11.174 19.4189 9.64258 21.5203 9.64258C23.6217 9.64258 25.318 11.174 25.318 13.0711C25.318 14.9683 23.6217 16.4997 21.5203 16.4997C19.4189 16.4997 17.7226 14.9683 17.7226 13.0711ZM20.2544 13.0711C20.2544 13.6997 20.8241 14.214 21.5203 14.214C22.2165 14.214 22.7862 13.6997 22.7862 13.0711C22.7862 12.4426 22.2165 11.9283 21.5203 11.9283C20.8241 11.9283 20.2544 12.4426 20.2544 13.0711Z" fill="#495E57"/>
</svg>
