<svg width="44" height="42" viewBox="0 0 44 42" fill="none" xmlns="http://www.w3.org/2000/svg">
<path d="M21.1093 0.745358C21.4804 0.018107 22.5196 0.0181085 22.8907 0.74536L28.9632 12.6445C29.1086 12.9292 29.3812 13.1273 29.6969 13.1775L42.8902 15.2758C43.6965 15.4041 44.0176 16.3923 43.4407 16.9701L34.0004 26.4224C33.7745 26.6486 33.6704 26.9691 33.7202 27.2849L35.8016 40.4808C35.9288 41.2873 35.0881 41.8981 34.3603 41.5279L22.4534 35.4707C22.1685 35.3257 21.8315 35.3257 21.5466 35.4707L9.63965 41.5279C8.91193 41.8981 8.07124 41.2873 8.19845 40.4808L10.2798 27.2849C10.3296 26.9691 10.2255 26.6486 9.99958 26.4224L0.559335 16.9701C-0.0176328 16.3924 0.303481 15.4041 1.10983 15.2758L14.3031 13.1775C14.6188 13.1273 14.8914 12.9292 15.0368 12.6445L21.1093 0.745358Z" fill="#F4CE14"/>
</svg>
